<svg width="14" height="14" viewBox="0 0 14 14" fill="none" xmlns="http://www.w3.org/2000/svg">
<path d="M13.8773 13.286L10.4751 9.88381C11.3878 8.83459 11.9403 7.46563 11.9403 5.9694C11.9403 2.67583 9.26138 0 5.97092 0C2.67736 0 0.00152588 2.67894 0.00152588 5.9694C0.00152588 9.25987 2.68046 11.9388 5.97092 11.9388C7.46715 11.9388 8.83611 11.3863 9.88533 10.4736L13.2875 13.8758C13.3683 13.9565 13.4769 14 13.5824 14C13.688 14 13.7966 13.9596 13.8773 13.8758C14.0388 13.7144 14.0388 13.4475 13.8773 13.286ZM0.836558 5.9694C0.836558 3.13836 3.13988 0.838138 5.96782 0.838138C8.79886 0.838138 11.0991 3.14146 11.0991 5.9694C11.0991 8.79734 8.79886 11.1038 5.96782 11.1038C3.13988 11.1038 0.836558 8.80044 0.836558 5.9694Z" fill="#A6A3A3"/>
</svg>
