<svg width="338" height="101" viewBox="0 0 338 101" fill="none" xmlns="http://www.w3.org/2000/svg">
<path fill-rule="evenodd" clip-rule="evenodd" d="M155.241 45.6906C155.24 45.691 155.239 45.6913 155.238 45.6916L155.241 45.6975C155.241 45.6975 155.241 45.6951 155.241 45.6906ZM186.205 49.9727C176.23 42.7294 169.333 41.565 155.241 45.6906C155.244 45.636 155.26 45.2581 155.279 44.654C161.093 42.1132 170.66 40.6099 180.261 41.9568C172.744 39.7756 163.065 39.9671 155.33 42.2133V41.1139C160.368 38.8589 168.286 37.3556 176.228 38.122C169.928 36.5686 161.864 37.0343 155.3 39.1154C155.296 38.9642 155.289 38.814 155.282 38.6644C155.27 38.4201 155.259 38.1777 155.259 37.9362C168.358 32.5597 185.288 33.1729 197.314 41.721C204.652 42.2871 212.298 39.9966 216.559 35.1331C232.583 16.8575 206.821 1.04037 191.822 11.257C184.556 -1.96035 157.161 -5.09372 152.962 15.0889C142.352 6.26363 125.754 13.4117 129.011 27.1183C131.049 35.7255 143.39 39.2037 152.162 38.3784C152.162 38.3784 153.048 44.5631 152.962 53.0199C161.803 41.9568 175.315 44.654 186.205 49.9727ZM134.44 26.1168C134.44 26.1333 134.44 26.1497 134.44 26.1662H134.455C134.45 26.1499 134.445 26.1333 134.44 26.1168ZM134.44 26.1168C134.525 18.842 142.201 15.0957 151.074 18.0631C145.666 14.5672 136.615 14.5819 134.455 21.6946C134.03 23.1381 134.025 24.6714 134.44 26.1168ZM158.166 15.6225C163.969 6.31963 179.71 6.48471 187.255 14.2046C181.296 4.52156 162.03 2.94162 158.166 15.6225ZM196.745 13.8863C209.325 13.5915 216.826 21.0785 212.309 31.4838C221.201 20.4919 208.484 10.8355 196.745 13.8863ZM154.722 18.526C155.517 -1.41798 184.944 0.663071 190.948 14.2282L190.933 14.243C200.154 7.28942 217.039 12.044 217.821 22.2665C218.51 31.1861 208.219 39.8257 199.247 38.6466C198.414 38.5376 194.73 35.8494 193.841 34.5406C197.986 32.0173 201.339 28.4772 203.289 25.0756C196.819 31.3483 190.554 34.1072 186.205 32.8043C184.921 32.6304 181.243 31.9487 179.561 31.637C179.251 31.5792 179.007 31.5341 178.86 31.5073C174.91 30.8029 173.644 29.105 173.399 24.9459C172.585 27.253 172.54 29.3468 173.268 31.2274C165.973 30.6751 162.15 26.8304 161.803 19.6932C160.48 24.9185 161.683 28.8908 165.409 31.6106C160.278 32.9114 156.07 31.416 152.784 27.1243C153.113 30.01 155.134 32.5302 157.469 33.9039C150.289 37.2701 136.982 36.1235 133.029 28.321C131.863 26.0814 131.611 23.4811 132.324 21.0609C135.275 11.3425 148.866 12.5864 154.722 18.526ZM11.4012 97.9492C14.9376 99.9716 19.0481 100.983 23.7327 100.983C26.764 100.983 29.6114 100.546 32.2751 99.6727C34.9389 98.7535 37.3043 97.4435 39.3709 95.7429C39.9681 95.2832 40.3814 94.8007 40.6109 94.295C40.8406 93.7434 40.9555 93.123 40.9555 92.4334C40.9555 91.4223 40.68 90.572 40.1288 89.8825C39.5777 89.1931 38.9116 88.8483 38.1309 88.8483C37.6258 88.8483 37.1435 88.9403 36.6842 89.124C36.2249 89.3079 35.7657 89.5378 35.3064 89.8135C33.1937 91.2384 31.2877 92.2495 29.5884 92.8472C27.9351 93.4447 26.121 93.7434 24.146 93.7434C19.3696 93.7434 15.7414 92.2495 13.2613 89.262C10.8272 86.2744 9.61008 81.8618 9.61008 76.0243C9.61008 70.2328 10.8272 65.8433 13.2613 62.8557C15.7414 59.868 19.3696 58.3741 24.146 58.3741C26.2128 58.3741 28.0958 58.673 29.7951 59.2705C31.4944 59.822 33.3316 60.8333 35.3064 62.3042C36.2709 62.9475 37.2123 63.2693 38.1309 63.2693C38.9116 63.2693 39.5777 62.9246 40.1288 62.2352C40.68 61.5457 40.9555 60.6954 40.9555 59.6841C40.9555 58.9487 40.8406 58.3283 40.6109 57.8227C40.3814 57.317 39.9681 56.8345 39.3709 56.3748C37.3043 54.674 34.9389 53.3872 32.2751 52.5137C29.6114 51.5945 26.764 51.1349 23.7327 51.1349C19.0481 51.1349 14.9376 52.1461 11.4012 54.1685C7.91077 56.1909 5.22402 59.0866 3.34101 62.8557C1.45799 66.5787 0.516479 70.9684 0.516479 76.0243C0.516479 81.0804 1.45799 85.493 3.34101 89.262C5.22402 93.0309 7.91077 95.9268 11.4012 97.9492ZM79.516 79.6784C79.516 70.4398 75.5664 65.8204 67.6668 65.8204C65.2327 65.8204 63.0511 66.303 61.1222 67.2682C59.2392 68.1875 57.7237 69.5435 56.5754 71.336V55.2717C56.5754 54.0765 56.185 53.1343 55.4043 52.4448C54.6235 51.7554 53.5901 51.4106 52.3041 51.4106C51.0181 51.4106 49.9618 51.7784 49.1353 52.5137C48.3545 53.2493 47.9641 54.2144 47.9641 55.4096V96.6392C47.9641 97.9262 48.3314 98.9374 49.0662 99.6727C49.847 100.408 50.9034 100.776 52.2352 100.776C53.5672 100.776 54.6235 100.408 55.4043 99.6727C56.185 98.9374 56.5754 97.9262 56.5754 96.6392V81.2643C56.5754 78.6444 57.3102 76.5529 58.78 74.9901C60.2955 73.4273 62.2934 72.6459 64.7734 72.6459C66.886 72.6459 68.4246 73.2205 69.3891 74.3697C70.3995 75.4728 70.9047 77.2424 70.9047 79.6784V96.6392C70.9047 97.9262 71.2951 98.9374 72.0758 99.6727C72.8566 100.408 73.9129 100.776 75.2449 100.776C76.5767 100.776 77.6101 100.408 78.3449 99.6727C79.1256 98.9374 79.516 97.9262 79.516 96.6392V79.6784ZM116.783 92.0198C116.324 91.4223 115.704 91.1235 114.923 91.1235C114.28 91.1235 113.27 91.4912 111.892 92.2266C110.468 92.8701 109.182 93.3758 108.034 93.7434C106.932 94.1112 105.646 94.295 104.176 94.295C101.283 94.295 99.0784 93.5597 97.5628 92.0888C96.0473 90.572 95.1516 88.2278 94.8761 85.0563H115.199C116.944 85.0563 117.817 84.0681 117.817 82.0915C117.817 78.7822 117.197 75.9095 115.957 73.4733C114.717 71.0373 112.971 69.1528 110.721 67.8197C108.471 66.4869 105.83 65.8204 102.799 65.8204C99.6296 65.8204 96.782 66.5558 94.256 68.0265C91.776 69.4975 89.847 71.5659 88.4692 74.2318C87.0914 76.8977 86.4026 79.9543 86.4026 83.4016C86.4026 88.8253 87.987 93.1 91.156 96.2256C94.3249 99.3511 98.6191 100.914 104.039 100.914C105.83 100.914 107.713 100.661 109.688 100.155C111.663 99.6038 113.431 98.8913 114.992 98.0181C116.692 97.0528 117.541 95.8578 117.541 94.4329C117.541 93.4216 117.289 92.6173 116.783 92.0198ZM97.3562 74.0939C98.7799 72.623 100.663 71.8876 103.005 71.8876C105.302 71.8876 107.093 72.623 108.379 74.0939C109.665 75.5188 110.354 77.6331 110.445 80.4369H94.8761C95.1516 77.6791 95.9784 75.5647 97.3562 74.0939ZM137.059 60.0979C138.024 58.9487 139.562 58.3052 141.675 58.1673L143.466 58.0295C145.717 57.7996 146.842 56.6964 146.842 54.72C146.842 53.6169 146.452 52.8126 145.671 52.3069C144.936 51.7554 143.65 51.5485 141.813 51.6865L140.022 51.8244C135.888 52.1461 132.673 53.548 130.377 56.03C128.127 58.4662 127.001 61.8445 127.001 66.1651V66.6477H123.557C120.985 66.6477 119.699 67.7279 119.699 69.8882C119.699 72.0484 120.985 73.1286 123.557 73.1286H127.001V96.6392C127.001 97.9721 127.415 98.9834 128.241 99.6727C129.068 100.362 130.101 100.707 131.342 100.707C132.582 100.707 133.592 100.362 134.373 99.6727C135.199 98.9834 135.613 97.9721 135.613 96.6392V73.1286H141.468C144.04 73.1286 145.326 72.0484 145.326 69.8882C145.326 67.7279 144.04 66.6477 141.468 66.6477H135.613V65.062C135.613 62.9017 136.095 61.2469 137.059 60.0979ZM159.408 97.9492C162.668 99.9256 166.503 100.914 170.913 100.914C175.368 100.914 179.225 99.9256 182.487 97.9492C185.746 95.9268 188.25 93.054 189.995 89.331C191.741 85.5619 192.614 81.1264 192.614 76.0243C192.614 70.9224 191.741 66.5098 189.995 62.7867C188.25 59.0637 185.746 56.2139 182.487 54.2375C179.225 52.2151 175.368 51.2038 170.913 51.2038C166.458 51.2038 162.599 52.2151 159.339 54.2375C156.124 56.2139 153.644 59.0866 151.898 62.8557C150.153 66.5787 149.28 70.9913 149.28 76.0932C149.28 81.1493 150.153 85.5619 151.898 89.331C153.644 93.054 156.147 95.9268 159.408 97.9492ZM183.658 91.6062C180.625 95.2832 176.377 97.1218 170.913 97.1218C165.447 97.1218 161.199 95.2832 158.167 91.6062C155.182 87.883 153.69 82.6892 153.69 76.0243C153.69 69.3596 155.182 64.1887 158.167 60.5115C161.199 56.8345 165.447 54.9958 170.913 54.9958C176.423 54.9958 180.672 56.8345 183.658 60.5115C186.688 64.1427 188.204 69.3136 188.204 76.0243C188.204 82.735 186.688 87.929 183.658 91.6062ZM230.217 79.058C230.217 70.4167 226.197 66.0962 218.161 66.0962C215.542 66.0962 213.224 66.6707 211.202 67.8197C209.227 68.9229 207.712 70.5317 206.656 72.6459V68.3025C206.656 67.6589 206.472 67.1533 206.105 66.7855C205.736 66.4179 205.254 66.234 204.657 66.234C204.014 66.234 203.486 66.4408 203.072 66.8545C202.706 67.2222 202.521 67.7279 202.521 68.3714V98.5697C202.521 99.2131 202.706 99.7418 203.072 100.155C203.486 100.523 204.014 100.707 204.657 100.707C205.301 100.707 205.805 100.523 206.174 100.155C206.541 99.7418 206.725 99.2131 206.725 98.5697V80.9885C206.725 77.5871 207.712 74.8753 209.687 72.8529C211.707 70.8305 214.371 69.8192 217.679 69.8192C220.572 69.8192 222.684 70.5777 224.016 72.0944C225.348 73.6112 226.013 76.0243 226.013 79.3337V98.5697C226.013 99.2131 226.197 99.7418 226.564 100.155C226.978 100.523 227.506 100.707 228.149 100.707C228.793 100.707 229.297 100.523 229.666 100.155C230.032 99.7418 230.217 99.2131 230.217 98.5697V79.058ZM241.689 100.155C242.103 100.523 242.631 100.707 243.274 100.707C243.871 100.707 244.353 100.523 244.72 100.155C245.133 99.7877 245.34 99.2591 245.34 98.5697V53.548C245.34 52.8586 245.133 52.3299 244.72 51.9623C244.353 51.5945 243.871 51.4106 243.274 51.4106C242.631 51.4106 242.103 51.5945 241.689 51.9623C241.323 52.3299 241.138 52.8586 241.138 53.548V98.5697C241.138 99.2591 241.323 99.7877 241.689 100.155ZM256.962 100.155C257.375 100.523 257.902 100.707 258.546 100.707C259.188 100.707 259.695 100.523 260.062 100.155C260.428 99.7877 260.613 99.2591 260.613 98.5697V68.3714C260.613 67.6819 260.428 67.1533 260.062 66.7855C259.695 66.4179 259.188 66.234 258.546 66.234C257.902 66.234 257.375 66.4179 256.962 66.7855C256.593 67.1533 256.411 67.6819 256.411 68.3714V98.5697C256.411 99.2591 256.593 99.7877 256.962 100.155ZM256.273 57.6158C256.869 58.1673 257.627 58.4431 258.546 58.4431C259.464 58.4431 260.199 58.1673 260.75 57.6158C261.348 57.0642 261.646 56.3517 261.646 55.4785C261.646 54.5592 261.348 53.8237 260.75 53.2722C260.199 52.7206 259.464 52.4448 258.546 52.4448C257.627 52.4448 256.869 52.7206 256.273 53.2722C255.722 53.8237 255.446 54.5592 255.446 55.4785C255.446 56.3517 255.722 57.0642 256.273 57.6158ZM299.377 79.058C299.377 70.4167 295.358 66.0962 287.321 66.0962C284.702 66.0962 282.382 66.6707 280.362 67.8197C278.387 68.9229 276.872 70.5317 275.816 72.6459V68.3025C275.816 67.6589 275.632 67.1533 275.264 66.7855C274.897 66.4179 274.415 66.234 273.817 66.234C273.175 66.234 272.646 66.4408 272.233 66.8545C271.866 67.2222 271.682 67.7279 271.682 68.3714V98.5697C271.682 99.2131 271.866 99.7418 272.233 100.155C272.646 100.523 273.175 100.707 273.817 100.707C274.461 100.707 274.966 100.523 275.332 100.155C275.701 99.7418 275.885 99.2131 275.885 98.5697V80.9885C275.885 77.5871 276.872 74.8753 278.847 72.8529C280.867 70.8305 283.531 69.8192 286.837 69.8192C289.732 69.8192 291.845 70.5777 293.176 72.0944C294.507 73.6112 295.173 76.0243 295.173 79.3337V98.5697C295.173 99.2131 295.358 99.7418 295.725 100.155C296.138 100.523 296.666 100.707 297.309 100.707C297.953 100.707 298.457 100.523 298.824 100.155C299.193 99.7418 299.377 99.2131 299.377 98.5697V79.058ZM336.959 93.7434C336.683 93.3758 336.339 93.1919 335.926 93.1919C335.512 93.1919 334.801 93.5366 333.79 94.2261C332.275 95.0993 330.851 95.8118 329.52 96.3634C328.187 96.8689 326.534 97.1218 324.559 97.1218C320.793 97.1218 317.877 96.0186 315.809 93.8123C313.743 91.6062 312.641 88.3886 312.503 84.1599H335.444C336.27 84.1599 336.868 83.976 337.234 83.6084C337.603 83.1947 337.785 82.5742 337.785 81.7468C337.785 76.8746 336.523 73.0597 333.997 70.3018C331.517 67.498 328.118 66.0962 323.801 66.0962C320.724 66.0962 317.991 66.8315 315.602 68.3025C313.26 69.7273 311.423 71.7727 310.092 74.4386C308.806 77.0585 308.163 80.0922 308.163 83.5395C308.163 88.9172 309.632 93.1459 312.572 96.2256C315.511 99.3051 319.53 100.845 324.628 100.845C328.302 100.845 331.793 99.8566 335.099 97.8802C336.661 96.9149 337.441 95.9268 337.441 94.9155C337.441 94.4558 337.281 94.0651 336.959 93.7434ZM316.085 72.577C318.015 70.5546 320.586 69.5435 323.801 69.5435C326.97 69.5435 329.427 70.5546 331.173 72.577C332.917 74.5536 333.837 77.3803 333.928 81.0575H312.641C313.009 77.4263 314.156 74.5994 316.085 72.577Z" fill="white"/>
</svg>
